<mxfile host="65bd71144e">
    <diagram id="WwbiBgrsiJqUZJX5JKYt" name="Page-1">
        <mxGraphModel dx="1109" dy="779" grid="1" gridSize="10" guides="1" tooltips="1" connect="1" arrows="1" fold="1" page="1" pageScale="1" pageWidth="827" pageHeight="1169" math="0" shadow="0">
            <root>
                <mxCell id="0"/>
                <mxCell id="1" parent="0"/>
                <mxCell id="26" value="" style="shape=corner;whiteSpace=wrap;html=1;rotation=-90;dx=75;dy=185;" vertex="1" parent="1">
                    <mxGeometry x="168.67000000000002" y="359.15" width="303.12" height="358.59" as="geometry"/>
                </mxCell>
                <mxCell id="28" value="&lt;font style=&quot;font-size: 30px;&quot;&gt;core&lt;/font&gt;" style="text;strokeColor=none;align=center;fillColor=none;html=1;verticalAlign=middle;whiteSpace=wrap;rounded=0;fontFamily=Verdana;" vertex="1" parent="1">
                    <mxGeometry x="200" y="517.5" width="80" height="40" as="geometry"/>
                </mxCell>
                <mxCell id="30" value="" style="shape=doubleArrow;direction=south;whiteSpace=wrap;html=1;fontFamily=Verdana;fontSize=24;fillColor=#1ba1e2;fontColor=#ffffff;strokeColor=#006EAF;" vertex="1" parent="1">
                    <mxGeometry x="580" y="690" width="40" height="90" as="geometry"/>
                </mxCell>
                <mxCell id="31" value="connectors" style="rounded=0;whiteSpace=wrap;html=1;fontFamily=Verdana;fontSize=24;" vertex="1" parent="1">
                    <mxGeometry x="520" y="615" width="160" height="75" as="geometry"/>
                </mxCell>
                <mxCell id="32" value="platform" style="rounded=0;whiteSpace=wrap;html=1;fontFamily=Verdana;fontSize=24;" vertex="1" parent="1">
                    <mxGeometry x="140" y="320" width="540" height="45" as="geometry"/>
                </mxCell>
                <mxCell id="34" value="" style="group;fillColor=default;" vertex="1" connectable="0" parent="1">
                    <mxGeometry x="360" y="390" width="320" height="200" as="geometry"/>
                </mxCell>
                <mxCell id="33" value="plugins" style="rounded=0;whiteSpace=wrap;html=1;fontFamily=Verdana;fontSize=21;fillColor=none;verticalAlign=top;" vertex="1" parent="34">
                    <mxGeometry width="320" height="200" as="geometry"/>
                </mxCell>
                <mxCell id="4" value="" style="rounded=1;whiteSpace=wrap;html=1;fillColor=#262527;" vertex="1" parent="34">
                    <mxGeometry x="25" y="40" width="60" height="40" as="geometry"/>
                </mxCell>
                <mxCell id="5" value="" style="rounded=1;whiteSpace=wrap;html=1;fillColor=#262527;" vertex="1" parent="34">
                    <mxGeometry x="25" y="90" width="60" height="40" as="geometry"/>
                </mxCell>
                <mxCell id="6" value="" style="rounded=1;whiteSpace=wrap;html=1;fillColor=#262527;" vertex="1" parent="34">
                    <mxGeometry x="25" y="140" width="60" height="40" as="geometry"/>
                </mxCell>
                <mxCell id="7" value="" style="rounded=1;whiteSpace=wrap;html=1;fillColor=#262527;" vertex="1" parent="34">
                    <mxGeometry x="95" y="40" width="60" height="40" as="geometry"/>
                </mxCell>
                <mxCell id="8" value="" style="rounded=1;whiteSpace=wrap;html=1;fillColor=#262527;" vertex="1" parent="34">
                    <mxGeometry x="95" y="90" width="60" height="40" as="geometry"/>
                </mxCell>
                <mxCell id="9" value="" style="rounded=1;whiteSpace=wrap;html=1;fillColor=#262527;" vertex="1" parent="34">
                    <mxGeometry x="95" y="140" width="60" height="40" as="geometry"/>
                </mxCell>
                <mxCell id="10" value="" style="rounded=1;whiteSpace=wrap;html=1;fillColor=#262527;" vertex="1" parent="34">
                    <mxGeometry x="165" y="40" width="60" height="40" as="geometry"/>
                </mxCell>
                <mxCell id="11" value="" style="rounded=1;whiteSpace=wrap;html=1;fillColor=#262527;" vertex="1" parent="34">
                    <mxGeometry x="165" y="90" width="60" height="40" as="geometry"/>
                </mxCell>
                <mxCell id="12" value="" style="rounded=1;whiteSpace=wrap;html=1;fillColor=#262527;" vertex="1" parent="34">
                    <mxGeometry x="165" y="140" width="60" height="40" as="geometry"/>
                </mxCell>
                <mxCell id="13" value="" style="rounded=1;whiteSpace=wrap;html=1;fillColor=#262527;" vertex="1" parent="34">
                    <mxGeometry x="235" y="40" width="60" height="40" as="geometry"/>
                </mxCell>
                <mxCell id="14" value="" style="rounded=1;whiteSpace=wrap;html=1;fillColor=#262527;" vertex="1" parent="34">
                    <mxGeometry x="235" y="90" width="60" height="40" as="geometry"/>
                </mxCell>
                <mxCell id="15" value="" style="rounded=1;whiteSpace=wrap;html=1;fillColor=#262527;" vertex="1" parent="34">
                    <mxGeometry x="235" y="140" width="60" height="40" as="geometry"/>
                </mxCell>
                <mxCell id="36" value="hardware" style="rounded=0;whiteSpace=wrap;html=1;fontFamily=Verdana;fontSize=24;" vertex="1" parent="1">
                    <mxGeometry x="520" y="780" width="160" height="75" as="geometry"/>
                </mxCell>
                <mxCell id="37" value="" style="shape=doubleArrow;direction=south;whiteSpace=wrap;html=1;fontFamily=Verdana;fontSize=24;fillColor=#1ba1e2;fontColor=#ffffff;strokeColor=#006EAF;" vertex="1" parent="1">
                    <mxGeometry x="390" y="240" width="40" height="80" as="geometry"/>
                </mxCell>
                <mxCell id="38" value="MQTT" style="rounded=0;whiteSpace=wrap;html=1;fontFamily=Verdana;fontSize=24;" vertex="1" parent="1">
                    <mxGeometry x="330" y="160" width="160" height="75" as="geometry"/>
                </mxCell>
            </root>
        </mxGraphModel>
    </diagram>
</mxfile>